HIERARCHY
ROOT hip
{
	OFFSET 0.000000 0.000000 0.000000 
	CHANNELS 6 Xposition Yposition Zposition Xrotation Zrotation Yrotation
	JOINT abdomen
	{
		OFFSET 0.000000 3.402643 0.000000 
		CHANNELS 3 Xrotation Zrotation Yrotation
		JOINT chest
		{
			OFFSET 0.000000 8.438565 -0.680529 
			CHANNELS 3 Xrotation Zrotation Yrotation
			JOINT neck
			{
				OFFSET 0.000000 10.207942 -0.272212 
				CHANNELS 3 Xrotation Zrotation Yrotation
				JOINT head
				{
					OFFSET 0.000000 3.130431 0.000000 
					CHANNELS 3 Xrotation Zrotation Yrotation
					End Site
					{
						OFFSET 0.000000 3.130435 0.000000 
					}
				}
			}
			JOINT lCollar
			{
				OFFSET 3.470700 6.669187 -0.816635 
				CHANNELS 3 Yrotation Zrotation Xrotation
				JOINT lShldr
				{
					OFFSET 3.198488 0.000000 0.000000 
					CHANNELS 3 Zrotation Yrotation Xrotation
					JOINT lForeArm
					{
						OFFSET 10.139888 0.000000 0.000000 
						CHANNELS 3 Yrotation Zrotation Xrotation
						JOINT lHand
						{
							OFFSET 8.370511 0.000000 0.000000 
							CHANNELS 3 Zrotation Yrotation Xrotation
							End Site
							{
								OFFSET 4.083176 0.000000 0.000000 
							}
						}
					}
				}
			}
			JOINT rCollar
			{
				OFFSET -3.470700 6.669187 -0.816635 
				CHANNELS 3 Yrotation Zrotation Xrotation
				JOINT rShldr
				{
					OFFSET -3.198488 0.000000 0.000000 
					CHANNELS 3 Zrotation Yrotation Xrotation
					JOINT rForeArm
					{
						OFFSET -10.139888 0.000000 0.000000 
						CHANNELS 3 Yrotation Zrotation Xrotation
						JOINT rHand
						{
							OFFSET -8.370511 0.000000 0.000000 
							CHANNELS 3 Zrotation Yrotation Xrotation
							End Site
							{
								OFFSET -4.083176 0.000000 0.000000 
							}
						}
					}
				}
			}
		}
	}
	JOINT lThigh
	{
		OFFSET 5.308129 -1.633274 1.361059 
		CHANNELS 3 Xrotation Zrotation Yrotation
		JOINT lShin
		{
			OFFSET -2.041588 -20.007561 0.000000 
			CHANNELS 3 Xrotation Zrotation Yrotation
			JOINT lFoot
			{
				OFFSET 0.000000 -19.190928 -1.224953 
				CHANNELS 3 Xrotation Yrotation Zrotation
				End Site
				{
					OFFSET 0.000000 -2.449906 4.627600 
				}
			}
		}
	}
	JOINT rThigh
	{
		OFFSET -5.308129 -1.633274 1.361059 
		CHANNELS 3 Xrotation Zrotation Yrotation
		JOINT rShin
		{
			OFFSET 2.041588 -20.007561 0.000000 
			CHANNELS 3 Xrotation Zrotation Yrotation
			JOINT rFoot
			{
				OFFSET 0.000000 -19.190928 -1.224953 
				CHANNELS 3 Xrotation Yrotation Zrotation
				End Site
				{
					OFFSET 0.000000 -2.449906 4.627600 
				}
			}
		}
	}
}
MOTION
Frames: 20
Frame Time: 0.033333
27.976240 49.683567 -7.069574 1.208319 1.234109 -71.367447 0.000000 0.000000 0.000000 3.474706 1.562816 -0.589134 4.733134 -0.322005 2.304706 4.540062 -5.139694 2.951245 -9.250288 -1.311125 3.778598 -57.097931 11.619172 8.267728 -47.921379 -4.478872 28.248180 -4.104790 5.039210 -3.578083 4.934518 7.790563 3.355187 60.930882 3.262002 16.670418 56.407333 4.932373 24.187456 -14.975875 -7.911303 -2.977637 -3.583053 7.604694 7.851866 10.065853 -2.050572 17.913820 -5.392400 0.116005 -1.608606 -1.523807 -12.194290 -8.010221 11.060822 -1.075622 -1.087773 -5.634162 -0.196545 4.160619 
27.436022 49.625000 -7.572304 0.958123 1.075235 -67.289558 0.000000 0.000000 0.000000 3.602564 1.394153 -1.024416 4.679858 -0.273331 1.601544 4.887700 -5.345320 2.775298 -9.660229 -1.309082 3.889575 -56.929523 10.365348 8.014366 -47.695999 -4.426795 27.189337 -4.740537 3.439313 -3.501910 4.662544 8.231763 3.438877 59.596222 4.539528 19.960409 57.876678 5.372683 23.165813 -16.487041 -7.839916 -2.924509 -4.207352 7.974366 7.490151 11.224835 -1.426500 14.043951 -5.827998 0.122487 -1.756786 1.941004 -12.978966 -6.999700 3.425611 -2.070099 9.587247 -4.512632 -0.213714 6.376175 
27.002377 49.642147 -8.171115 0.746195 0.938072 -63.736164 0.000000 0.000000 0.000000 3.797712 1.428833 -0.968839 4.956470 -0.214797 1.191398 5.042454 -6.010012 2.483699 -9.837875 -1.680958 4.041851 -56.864815 8.760409 7.617141 -47.790096 -4.369053 24.613497 -5.638369 3.116877 -3.471262 4.623275 8.441723 3.627505 59.322208 5.510809 22.075083 58.565102 5.522709 22.935665 -16.486744 -7.005137 -3.036516 -4.108883 8.215776 7.075116 10.238179 -0.781971 11.089091 -4.915676 0.092060 -1.892833 2.850315 -13.932178 -6.041437 1.706543 -2.952534 18.439989 -5.154935 -0.361781 8.608391 
26.525188 49.607529 -8.847499 0.335210 0.519695 -59.867279 0.000000 0.000000 0.000000 4.266546 1.440926 -1.048455 5.172170 -0.302713 0.683584 5.697039 -5.855925 1.972571 -9.958516 -1.550945 4.473051 -58.128036 7.285549 6.583843 -48.411850 -3.686634 26.229160 -6.085229 3.404150 -3.498546 4.346509 8.285769 4.069306 59.078827 6.949027 24.670704 58.912746 5.940591 23.953106 -16.355072 -6.520648 -3.095357 -4.333224 8.508753 6.620660 10.376227 0.056999 7.670859 -4.585117 0.118941 -2.049243 4.431571 -14.342693 -6.231373 1.804180 -3.146830 21.023493 -5.894078 -0.506373 10.373684 
25.996317 49.485447 -9.668218 -0.582181 0.809456 -55.945873 0.000000 0.000000 0.000000 4.570329 0.718575 -0.803493 5.028258 -0.507811 0.117183 6.260728 -6.462490 1.551847 -10.052163 -1.209463 4.711702 -58.911797 5.377635 7.174946 -49.371445 -3.723889 26.021282 -5.754272 3.920946 -3.526771 4.090736 7.778260 4.430298 58.389656 8.225920 27.852261 59.562290 6.338832 27.023296 -17.091562 -6.747496 -3.053623 -4.402829 8.531290 6.257337 9.430705 0.349710 3.675146 -3.744987 0.103968 -2.526481 6.051157 -14.954962 -7.642541 1.698056 -2.635295 20.500019 -7.287937 -0.793267 12.820288 
25.441618 49.387783 -10.556077 -2.034066 1.057391 -52.541977 0.000000 0.000000 0.000000 5.254014 -0.327900 -0.459516 5.333996 -1.152342 -0.097833 6.616350 -5.985456 0.981421 -9.886321 -1.926015 5.186227 -58.998676 3.801620 7.611544 -50.515949 -3.744737 25.282576 -5.556606 3.872816 -3.526695 4.419153 6.727417 5.112960 58.363216 9.572583 30.423063 60.079231 6.504189 29.167633 -17.200735 -6.303851 -3.111944 -3.397885 8.093225 5.805159 7.064989 0.730605 0.221741 -2.160033 0.090724 -2.919606 8.093631 -15.222960 -10.089829 1.648162 -1.346847 17.545130 -8.868926 -0.958842 12.435403 
25.087055 49.259880 -11.582417 -2.259740 1.442681 -48.751076 0.000000 0.000000 0.000000 5.634841 -0.407517 -0.471622 5.447830 -1.445288 -0.332172 6.951121 -5.087795 0.352775 -9.701782 -2.992683 5.442159 -58.515152 2.482139 7.716130 -52.117146 -3.608856 24.762835 -5.473319 3.623723 -3.507917 4.727739 6.259698 5.477098 57.762943 11.340313 33.510269 60.314636 7.083446 28.695477 -19.305191 -5.738407 -3.140824 -4.678003 8.310447 4.971052 6.657790 1.639935 -3.128334 -1.260822 0.018946 -3.327739 8.892178 -13.754580 -10.968069 1.495697 -0.291476 10.475755 -10.095703 -0.850214 10.273520 
24.743919 49.180794 -12.633642 -1.605512 2.207777 -44.162231 0.000000 0.000000 0.000000 5.410336 -0.264440 -0.514550 5.263474 -0.986139 -1.123217 7.116544 -5.214817 -0.186554 -9.748312 -2.227920 5.304415 -60.146885 0.978739 7.840013 -52.831573 -3.396440 24.901896 -4.271570 3.592644 -3.511806 4.782442 6.916883 5.219765 56.438873 11.581083 35.269337 61.455425 7.217701 28.383404 -19.301830 -5.509966 -3.170426 -6.784795 8.688052 4.161492 5.669326 2.321931 -7.442317 -0.147642 -0.004812 -3.199319 8.590800 -12.262945 -10.581884 1.493068 0.066624 5.567663 -9.622943 -0.850944 9.926057 
24.464794 49.115372 -13.551389 -0.381938 3.103987 -39.218903 0.000000 0.000000 0.000000 4.707411 0.494576 -0.890257 4.721117 -0.107335 -2.304702 7.540329 -5.399809 -0.844387 -10.064819 -1.402419 4.798248 -62.230808 0.395490 7.828451 -53.802433 -3.088429 24.726501 -3.829349 3.383433 -3.498561 4.587749 7.794975 4.515291 54.714352 11.141825 37.518341 62.803970 7.601542 28.135807 -20.709438 -6.932614 -2.912466 -9.827602 9.104851 3.181006 5.689813 3.023345 -11.487042 0.341579 -0.024854 -2.857404 7.856146 -10.873461 -10.604156 1.510255 1.060464 1.927879 -9.629857 -0.699399 8.596932 
24.190788 49.142380 -14.319793 0.322683 3.031971 -34.595825 0.000000 0.000000 0.000000 4.667096 1.229647 -0.793068 4.252771 -0.077982 -3.466807 8.667872 -4.908391 -2.235105 -10.597346 -1.713483 4.799865 -64.241646 0.132726 7.289150 -54.762302 -2.660019 25.130247 -3.518472 3.078339 -3.490607 4.591015 7.430136 4.481398 53.789200 9.895672 38.843277 64.098747 7.472064 26.039717 -21.062784 -7.197197 -2.856489 -11.810034 8.647277 2.582431 5.886299 2.869552 -10.624068 2.029063 -0.042817 -1.581966 8.161765 -10.047295 -11.664884 1.374013 2.415238 -1.573457 -9.585158 -0.617397 7.222678 
23.866768 49.273994 -14.915795 -0.078111 2.824694 -30.900547 0.000000 0.000000 0.000000 5.115620 1.386221 -0.278171 4.488977 0.048722 -3.769530 9.264800 -3.119656 -3.354738 -10.032536 -1.390683 5.240901 -67.694855 0.334828 6.800042 -54.979351 -2.306230 25.280500 -2.644708 3.324606 -3.500014 5.278744 7.814657 4.842928 51.924423 8.339737 40.430473 65.651398 7.111395 22.635365 -21.519855 -7.381074 -2.807203 -12.964124 8.551419 3.080551 8.379164 1.714148 -6.181437 2.552049 -0.033888 -0.995906 9.208524 -9.277881 -12.395000 1.113899 3.283722 -4.270048 -9.605404 -0.536102 6.151135 
23.589043 49.368652 -15.396517 -0.500992 3.175196 -27.663120 0.000000 0.000000 0.000000 5.174409 1.350189 0.274548 4.623142 0.194694 -4.560554 9.517819 -2.959780 -4.459274 -9.684797 -1.221649 5.304180 -70.253807 1.458228 7.186289 -54.887432 -2.422812 23.728710 -2.352518 3.664683 -3.504694 5.547054 7.433962 4.914125 50.856781 6.707637 42.636024 67.448975 6.549692 19.289116 -22.132202 -8.276227 -2.620204 -13.753650 7.876950 3.261331 11.467216 0.964090 1.183911 0.757986 0.026030 0.145115 9.810017 -8.699058 -12.463120 0.887988 3.291135 -7.136302 -9.635898 -0.495088 5.653555 
23.375780 49.413563 -15.802437 -0.120016 3.333747 -24.477564 0.000000 0.000000 0.000000 4.676177 1.468163 0.381108 4.436331 0.777604 -5.537526 9.864319 -3.248456 -5.174848 -8.876009 -0.967077 4.862970 -71.065544 3.510425 9.030021 -54.208908 -3.236226 22.761677 -2.555212 3.623339 -3.506856 5.673724 8.777922 4.399911 48.463646 4.256516 44.896519 70.536118 5.373356 14.806890 -22.247746 -8.847774 -2.512931 -14.779803 7.633646 3.581417 14.577855 0.280451 6.966042 0.049295 0.034867 0.806856 10.034463 -8.132775 -13.049540 0.264348 4.112780 -9.726415 -9.486485 -0.432955 4.861556 
23.163446 49.483158 -16.075682 0.128901 3.560456 -21.948372 0.000000 0.000000 0.000000 4.236554 1.612934 0.563611 3.974221 0.543685 -6.191683 10.317551 -2.553226 -6.227119 -8.725815 -0.778474 4.488422 -71.270424 5.934732 10.079720 -52.975937 -3.841557 24.275902 -3.439495 3.718637 -3.512443 5.773747 8.429696 4.011939 48.483181 2.128343 46.388653 73.611664 3.705101 12.239710 -21.339912 -9.637854 -2.412199 -15.075290 7.410651 4.173996 17.261866 -0.412865 11.103394 0.503977 0.023471 1.082775 10.051690 -7.711095 -13.269845 0.313408 4.522841 -11.503581 -9.714023 -0.401278 4.394056 
23.048264 49.469486 -16.287374 0.365929 3.426865 -19.841341 0.000000 0.000000 0.000000 3.923282 1.899474 0.585581 3.753212 0.630330 -6.777684 10.185408 -2.268764 -6.870652 -8.833752 -0.649772 4.236227 -71.190323 9.090634 9.727942 -52.361729 -4.121022 23.526440 -2.067595 3.153376 -3.488985 5.751839 8.687372 3.701897 48.200439 -0.011091 47.426407 78.184776 1.309595 10.348655 -19.908997 -10.185329 -2.413084 -15.574192 7.313551 4.447032 21.126600 -0.520413 14.074932 0.535934 0.035981 1.202017 9.984973 -7.038929 -12.845126 0.196011 4.428319 -13.238934 -9.825928 -0.395992 4.181948 
22.936134 49.461803 -16.336643 0.019724 3.525426 -19.109240 0.000000 0.000000 0.000000 3.963465 1.686745 0.929383 3.580069 0.601140 -6.855807 9.941048 -2.402936 -7.174325 -8.389973 -0.559562 4.250820 -70.659531 12.179454 9.222010 -51.577271 -4.224074 22.986359 -2.201139 4.221171 -3.523726 5.967484 8.726290 3.748371 48.067089 -1.513761 48.580238 83.437035 -1.706016 10.144138 -17.528301 -10.506567 -2.508682 -13.854377 7.253976 5.300574 23.037939 -1.056663 16.041271 -2.216212 0.016157 0.942916 10.317065 -7.009277 -12.889002 0.322276 4.401052 -13.716657 -10.032993 -0.375452 4.140090 
22.927238 49.430019 -16.434229 0.564664 3.461608 -18.159180 0.000000 0.000000 0.000000 3.552770 1.789627 0.772525 3.295507 0.668647 -7.109799 9.268366 -2.208386 -7.330040 -8.435738 -0.315390 3.902647 -70.545845 15.432618 7.681793 -50.263638 -3.949306 24.260780 -3.118525 5.174258 -3.572441 5.885643 8.921842 3.359256 47.770405 -2.656545 50.030418 89.689392 -5.059764 11.248407 -17.139854 -10.329337 -2.558656 -12.541368 7.230992 5.665274 23.306299 -1.025101 17.995546 -3.837884 0.052057 -0.824556 9.760477 -6.501448 -12.137220 0.400721 3.990012 -15.102216 -10.049582 -0.390207 4.360000 
22.958309 49.406742 -16.405903 0.462029 3.721367 -17.723717 0.000000 0.000000 0.000000 3.455526 1.487995 0.487135 3.395703 0.474569 -7.363513 8.297804 -2.208867 -7.232079 -8.468221 -0.556212 3.796001 -69.328209 18.115686 8.101751 -49.264065 -4.487736 22.062889 -4.318863 7.089006 -3.690361 5.511948 8.525362 3.328408 47.999519 -2.925899 50.945980 95.992233 -8.425284 15.807909 -14.477105 -10.525110 -2.696500 -10.286909 7.006674 6.089250 23.705353 -1.390083 16.732145 -5.830146 0.156271 -2.380969 10.108600 -6.861434 -12.856298 0.028835 4.421389 -14.882265 -9.950335 -0.421523 4.117080 
23.065870 49.438713 -16.321121 1.045563 4.003245 -17.602304 0.000000 0.000000 0.000000 2.899098 1.295144 0.211086 3.114858 0.387514 -7.236492 7.977666 -1.996959 -6.947629 -8.429004 -0.562618 3.265104 -68.473183 21.236938 8.341566 -48.149265 -4.774024 23.879406 -5.065498 6.234980 -3.667603 5.231863 8.070707 2.846247 48.245876 -3.264962 51.583336 102.556381 -11.572302 20.875233 -12.117408 -9.924375 -2.899296 -8.871244 6.596251 6.416856 22.628496 -1.765771 16.934237 -7.214221 0.181657 -2.442940 9.750128 -7.155480 -13.072164 -0.233362 4.525805 -14.562119 -9.892457 -0.378866 4.190999 
23.259054 49.475140 -16.173771 1.299858 3.821778 -18.244541 0.000000 0.000000 0.000000 2.762161 1.435320 0.344976 3.046697 0.329704 -6.787221 7.700510 -1.522487 -6.779871 -8.285747 -0.326556 3.179353 -68.307205 23.947615 8.220352 -47.050926 -4.904708 25.343830 -5.103920 5.744123 -3.641216 5.305474 7.634452 2.744435 48.282837 -3.565104 51.270683 109.881126 -14.242497 27.343756 -9.025887 -9.160780 -3.136408 -6.745439 6.422670 6.697438 20.194754 -1.914395 16.873026 -8.497588 0.186393 -1.965722 9.871223 -7.197197 -13.018764 -0.953291 4.502705 -13.916146 -9.421271 -0.385052 4.333774 
